<svg version="1.1" id="Layer_1" xmlns="http://www.w3.org/2000/svg" x="0" y="0" viewBox="0 0 420 206" xml:space="preserve">
  <title>MyBestBuy_Memberships_VT.svg</title>
<metadata><?xpacket begin="﻿" id="W5M0MpCehiHzreSzNTczkc9d"?>
<x:xmpmeta xmlns:x="adobe:ns:meta/" x:xmptk="Adobe XMP Core 8.0-c001 1.000000, 0000/00/00-00:00:00        ">
   <rdf:RDF xmlns:rdf="http://www.w3.org/1999/02/22-rdf-syntax-ns#">
      <rdf:Description rdf:about=""
            xmlns:ns1="http://www.bestbuy.com/bby"
            xmlns:dc="http://purl.org/dc/elements/1.1/"
            xmlns:tiff="http://ns.adobe.com/tiff/1.0/">
         <ns1:publicUrl>https://pisces.bbystatic.com/image2/vector/BestBuy_US/dam/MyBestBuy_Memberships_VT-6b4c46f5-c44b-4283-bc8e-92cfb0419b70.svg</ns1:publicUrl>
         <ns1:assetType>
            <rdf:Bag>
               <rdf:li>assetType:derived/graphic/logo---best-buy-logo</rdf:li>
            </rdf:Bag>
         </ns1:assetType>
         <ns1:sourceType>
            <rdf:Bag>
               <rdf:li>sourceType:best-buy</rdf:li>
            </rdf:Bag>
         </ns1:sourceType>
         <ns1:category>
            <rdf:Bag>
               <rdf:li>category:membership</rdf:li>
            </rdf:Bag>
         </ns1:category>
         <dc:modified>2023-04-12T19:10:01.331Z</dc:modified>
         <dc:format>image/svg+xml</dc:format>
         <dc:title>
            <rdf:Alt>
               <rdf:li xml:lang="x-default">MyBestBuy_Memberships_VT.svg</rdf:li>
            </rdf:Alt>
         </dc:title>
         <tiff:ImageLength>206</tiff:ImageLength>
         <tiff:ImageWidth>420</tiff:ImageWidth>
      </rdf:Description>
   </rdf:RDF>
</x:xmpmeta>
                                                                                                    
                                                                                                    
                                                                                                    
                                                                                                    
                                                                                                    
                                                                                                    
                                                                                                    
                                                                                                    
                                                                                                    
                                                                                                    
                                                                                                    
                                                                                                    
                                                                                                    
                                                                                                    
                                                                                                    
                                                                                                    
                                                                                                    
             
<?xpacket end="w"?></metadata>
<path  d="M97.8 128.1h-27v-8.8h22v-12.8h-22v-7.2h27.1V85.8H52.8v55.8h45.1v-13.5z"/>
  <path  d="M144 85.8v13.6h14.8v42.2h17.9V99.4h14.8V85.8H144z"/>
  <path  d="m39.6 112.1.9-.3c8.4-4.6 9.8-15.4 1.6-21.7-3.6-2.9-8.6-4.4-14.9-4.4H-.1v55.8h28.9c7.4 0 22.7-1.4 22.7-16 .1-11-11.6-13.3-11.9-13.4M18.1 98.9h6.7c2.5-.1 4.5 1.7 4.5 4.1 0 2.4-2.1 4.2-4.5 4.1h-6.7v-8.2zm12.4 28.4c-1 1-2.4 1.5-3.9 1.5h-8.5v-10h8.5c4.6-.3 7.4 5.2 3.9 8.5z"/>
  <path  d="M123.6 127.2c-3.9 3.3-11.4-.4-14.3-3.3L98.6 134c9.4 9.9 29.8 13 40.1 3.8 6.3-5.2 8-14.2 4.5-21.1-1.2-2.3-2.7-4-4.5-5.1-3.4-2.1-7.9-4.2-11.7-5.1-3.5-.8-8.8-2.8-5-6.5.8-.7 2-1 3.5-1 3.6 0 5.9 1.6 7 2.8l10.7-10.2-.2-.2c-8.6-8.6-27.1-9.9-36.1-1.9-4.1 3.5-6.1 7.7-6.1 12.5-.1 11.9 10 15.7 19.5 18.6 2 .8 4.6 1.4 4.8 3.5-.1 1.2-.5 2.3-1.5 3.1z"/>
  <path  d="m344.4 104.6-11.8-19h-18.1l20.9 35.9v19.9h18.1v-19.9l20.9-35.9h-18.1l-11.9 19z"/>
  <path  d="m251.7 111.9.9-.3c8.4-4.6 9.8-15.4 1.6-21.6-3.6-2.9-8.6-4.4-14.9-4.4h-27.2v55.8H241c7.4 0 22.7-1.4 22.7-16 0-11.1-11.7-13.4-12-13.5m-21.5-13.2h6.6c2.5-.1 4.6 1.6 4.5 4.1 0 2.4-2.1 4.1-4.5 4.1h-6.6v-8.2zm12.4 28.4c-1 1-2.4 1.5-3.9 1.5h-8.4v-10h8.4c4.6-.3 7.4 5.2 3.9 8.5"/>
  <path  d="M295.6 118.8c0 3.7-3 6.7-6.7 6.7s-6.8-3-6.8-6.7V85.6H264V118c0 13.8 11.5 24.7 25.3 24.1 13.3 0 24.1-10.8 24.1-24.1V85.6h-17.9l.1 33.2z"/>
  <path  d="M0 1h8.9v8.5C11.4 4.3 17.5 0 25.5 0 32.7 0 39 3 41.9 10.5 45.7 3.2 54 0 61 0c10 0 18.8 6 18.8 22.2v34.6h-8.9V21.6c0-9.8-4.2-13.9-11.9-13.9-7.3 0-14.7 4.9-14.7 14.9v34.2h-8.9V21.6c0-9.8-4.2-13.9-11.9-13.9-7.3 0-14.7 4.9-14.7 14.9v34.2H0V1z"/>
  <path  d="M96.2 75.2h9L135.6 1h-9.1L111 41 94 1h-9.5l21.9 50-10.2 24.2z"/>
  <path d="M374.7 116.2h44.2v35.4h-44.2l-11-10.4v-14.6l11-10.4z" fill="#fff200"/>
  <path  d="M372.4 133.8c-.1 2.9-4.3 2.9-4.4 0 .1-2.8 4.4-2.9 4.4 0z"/>
  <path  d="M0 179.3h4.3l7.7 22.1 7.6-22.1h4.2v25.2h-3.1v-21.2l-7.5 21.2h-2.9l-7.6-21.2v21.2H0v-25.2z"/>
  <path  d="M29.7 179.3h14.7v2.5H32.8v8.6h9.4v2.5h-9.4v9.1h12.3v2.5H29.7v-25.2z"/>
  <path  d="M48.6 179.3h4.3l7.7 22.1 7.6-22.1h4.2v25.2h-3.1v-21.2l-7.5 21.2H59l-7.6-21.2v21.2h-2.8v-25.2z"/>
  <path  d="M78.3 179.3h7.6c4.7 0 8.1 1.6 8.1 6.5v.1c0 2.3-.9 4.3-3.8 5.3 3.7.9 5.1 2.8 5.1 6v.1c0 4.8-3.2 7.1-8.3 7.1h-8.7v-25.1zm7.6 11c3.7 0 5.1-1.3 5.1-4.4v-.1c0-2.9-1.7-4-5.2-4h-4.5v8.6h4.6zm1 11.9c3.7 0 5.4-1.6 5.4-4.7v-.1c0-3.1-1.7-4.6-5.8-4.6h-5.2v9.4h5.6z"/>
  <path  d="M99.8 179.3h14.7v2.5h-11.7v8.6h9.4v2.5h-9.4v9.1h12.3v2.5H99.8v-25.2z"/>
  <path  d="M118.7 179.3h7.6c4.8 0 8.8 2 8.8 7v.1c0 4.2-2.8 6.2-6.2 6.9l7.7 11.2h-3.4l-7.5-11h-3.9v11h-3.1v-25.2zm7.8 11.8c3.6 0 5.5-1.5 5.5-4.7v-.1c0-3.4-2.1-4.6-5.5-4.6h-4.7v9.4h4.7z"/>
  <path  d="M138.4 196.9h3c.4 3 1.6 5.5 6.7 5.5 3.2 0 5.8-1.9 5.8-4.8 0-2.8-1.3-4.1-6.1-4.8-5.3-.8-8.4-2.5-8.4-6.9 0-3.9 3.4-6.9 8.1-6.9 5.1 0 8.2 2.5 8.7 7h-2.8c-.6-3.2-2.4-4.5-5.9-4.5s-5.3 1.7-5.3 4.1.9 3.7 6.1 4.5c5.6.9 8.6 2.6 8.6 7.3 0 4.2-3.7 7.4-8.7 7.4-6.9.1-9.3-3.6-9.8-7.9"/>
  <path  d="M161.4 179.3h3.1v11.4h13.3v-11.4h3.1v25.2h-3.1v-11.2h-13.3v11.2h-3.1v-25.2z"/>
  <path  d="M189.8 179.3h-3.1v25.2h3.1v-25.2z"/>
  <path  d="M195.6 179.3h7.2c4.8 0 8.8 2.1 8.8 7.4v.1c0 5.4-4 7.4-8.8 7.4h-4.1v10.3h-3.1v-25.2zm7.4 12.6c3.6 0 5.5-1.8 5.5-5v-.1c0-3.6-2.1-4.9-5.5-4.9h-4.3V192h4.3z"/>
  <path  d="M234.6 179.7h-1.3v-.4h3.1v.4h-1.3v3.7h-.5v-3.7zm2.5-.4h.7l1.3 3.3 1.3-3.3h.7v4.1h-.5v-3.5l-1.5 3.5h-.2l-1.5-3.5v3.5h-.5v-4.1z"/>
  <path  d="M195.6 179.3h7.2c4.8 0 8.8 2.1 8.8 7.4v.1c0 5.4-4 7.4-8.8 7.4h-4.1v10.3h-3.1v-25.2zm7.4 12.6c3.6 0 5.5-1.8 5.5-5v-.1c0-3.6-2.1-4.9-5.5-4.9h-4.3V192h4.3z"/>
  <path  d="M213.9 196.9h3c.4 3 1.6 5.5 6.7 5.5 3.2 0 5.8-1.9 5.8-4.8s-1.3-4.1-6.1-4.8c-5.3-.8-8.4-2.5-8.4-7 0-3.9 3.4-6.8 8.1-6.8 5 0 8.2 2.5 8.7 7h-2.8c-.6-3.2-2.4-4.5-5.9-4.5s-5.3 1.7-5.3 4.1c0 2.4.9 3.7 6.1 4.5 5.6.9 8.6 2.6 8.6 7.4 0 4.2-3.7 7.4-8.7 7.4-6.9 0-9.3-3.7-9.8-8z"/>
</svg>
